<svg width="130" height="23" viewBox="0 0 130 23" fill="none" xmlns="http://www.w3.org/2000/svg">
<g clip-path="url(#clip0_6129_148862)">
<path d="M4.4523 6.94851C4.3374 6.94851 4.30868 6.88853 4.36613 6.79857L4.96934 5.98892C5.02679 5.89896 5.17041 5.83899 5.28531 5.83899H15.5399C15.6548 5.83899 15.6836 5.92895 15.6261 6.01891L15.1378 6.79857C15.0803 6.88853 14.9367 6.97849 14.8505 6.97849L4.4523 6.94851Z" fill="#51D9E9"/>
<path d="M0.114898 9.7073C0 9.7073 -0.0287244 9.64732 0.0287244 9.55736L0.631938 8.74771C0.689387 8.65775 0.833009 8.59778 0.947907 8.59778H14.0463C14.1611 8.59778 14.2186 8.68774 14.1899 8.7777L13.9601 9.49739C13.9314 9.61734 13.8165 9.67731 13.7016 9.67731L0.114898 9.7073Z" fill="#51D9E9"/>
<path d="M7.06619 12.4661C6.95129 12.4661 6.92257 12.3761 6.98002 12.2862L7.38216 11.5365C7.43961 11.4465 7.55451 11.3566 7.66941 11.3566H13.4143C13.5292 11.3566 13.5866 11.4465 13.5866 11.5665L13.5292 12.2862C13.5292 12.4061 13.4143 12.4961 13.3281 12.4961L7.06619 12.4661Z" fill="#51D9E9"/>
<path d="M36.8822 6.4087C35.0726 6.8885 33.8374 7.24834 32.0565 7.72813C31.6256 7.84808 31.5969 7.87807 31.2235 7.42826C30.7926 6.91848 30.4766 6.58863 29.8734 6.28876C28.0638 5.35916 26.3116 5.62904 24.6743 6.73856C22.721 8.05799 21.7157 10.0071 21.7444 12.4361C21.7731 14.835 23.353 16.8142 25.6222 17.144C27.5755 17.4139 29.2128 16.6942 30.5054 15.1649C30.7639 14.835 30.9937 14.4752 31.2809 14.0554C30.2468 14.0554 28.9542 14.0554 25.7371 14.0554C25.1339 14.0554 24.9903 13.6656 25.1913 13.1558C25.5648 12.2262 26.2542 10.6669 26.6563 9.88719C26.7425 9.70727 26.9435 9.4074 27.3744 9.4074C28.8394 9.4074 34.2395 9.4074 37.8301 9.4074C37.7727 10.217 37.7727 11.0267 37.6578 11.8363C37.3418 13.9954 36.5662 15.9745 35.3024 17.7138C33.2342 20.5626 30.5341 22.3318 27.1159 22.8116C24.3009 23.2014 21.687 22.6317 19.389 20.8324C17.2634 19.1532 16.057 16.9341 15.741 14.1753C15.3676 10.9067 16.2868 7.96803 18.1826 5.38915C20.222 2.60036 22.9221 0.83113 26.2254 0.201403C28.9255 -0.308375 31.5107 0.0214816 33.8374 1.67076C35.3598 2.72031 36.4513 4.15968 37.1694 5.89893C37.3418 6.16881 37.2269 6.31874 36.8822 6.4087Z" fill="#51D9E9"/>
<path d="M46.39 22.9915C43.7761 22.9316 41.392 22.1519 39.3812 20.3527C37.6865 18.8233 36.6237 16.8742 36.279 14.5652C35.762 11.1767 36.6524 8.17797 38.6057 5.50913C40.7026 2.63038 43.2303 1.13103 46.6485 0.501309C49.5784 -0.0384566 52.336 0.261413 54.835 2.03064C57.1042 3.64994 58.5117 5.83899 58.8851 8.71774C59.3734 12.766 58.2532 16.0645 55.5818 18.8833C53.686 20.8924 51.3593 22.1519 48.688 22.7216C47.9124 22.8716 47.1368 22.9016 46.39 22.9915ZM53.2264 10.8768C53.1977 10.487 53.1977 10.1871 53.1402 9.88723C52.6232 6.91852 50.0093 5.23925 47.2805 5.89896C44.6091 6.52869 42.8856 8.29792 42.2537 11.1167C41.7366 13.4557 42.8282 15.8246 44.8963 16.7842C46.4762 17.5039 48.056 17.414 49.5784 16.6043C51.8476 15.3748 53.0828 13.4557 53.2264 10.8768Z" fill="#51D9E9"/>
</g>
<path d="M119.311 17.8995L121.399 8.89948H124.117L123.667 11.7615L123.505 11.5095C123.757 10.6095 124.201 9.91948 124.837 9.43948C125.473 8.95948 126.211 8.71948 127.051 8.71948C127.699 8.71948 128.239 8.86348 128.671 9.15148C129.115 9.42748 129.421 9.82348 129.589 10.3395C129.769 10.8555 129.775 11.4795 129.607 12.2115L128.275 17.8995H125.215L126.457 12.5895C126.565 12.1095 126.523 11.7375 126.331 11.4735C126.139 11.1975 125.827 11.0595 125.395 11.0595C125.071 11.0595 124.783 11.1375 124.531 11.2935C124.291 11.4375 124.081 11.6595 123.901 11.9595C123.733 12.2475 123.601 12.6075 123.505 13.0395L122.371 17.8995H119.311Z" fill="#51D9E9"/>
<path d="M111.874 18.0615C111.274 18.0615 110.734 17.9235 110.254 17.6475C109.786 17.3595 109.414 16.9515 109.138 16.4235C108.874 15.8835 108.742 15.2235 108.742 14.4435C108.742 13.7235 108.844 13.0215 109.048 12.3375C109.252 11.6535 109.546 11.0415 109.93 10.5015C110.326 9.94948 110.794 9.51748 111.334 9.20548C111.886 8.88148 112.504 8.71948 113.188 8.71948C113.584 8.71948 113.962 8.79148 114.322 8.93548C114.694 9.07948 115.006 9.30148 115.258 9.60148C115.522 9.90148 115.702 10.2975 115.798 10.7895L116.23 8.89948H119.29L117.202 17.8995H114.43L114.736 16.2075C114.448 16.7835 114.052 17.2395 113.548 17.5755C113.044 17.8995 112.486 18.0615 111.874 18.0615ZM113.206 15.8295C113.506 15.8295 113.782 15.7335 114.034 15.5415C114.286 15.3495 114.502 15.0975 114.682 14.7855C114.874 14.4615 115.018 14.1135 115.114 13.7415C115.222 13.3575 115.276 12.9795 115.276 12.6075C115.276 12.2715 115.216 11.9835 115.096 11.7435C114.988 11.4915 114.832 11.2995 114.628 11.1675C114.424 11.0355 114.178 10.9695 113.89 10.9695C113.554 10.9695 113.254 11.0715 112.99 11.2755C112.726 11.4675 112.504 11.7195 112.324 12.0315C112.144 12.3435 112.006 12.6855 111.91 13.0575C111.814 13.4175 111.766 13.7655 111.766 14.1015C111.766 14.4615 111.82 14.7735 111.928 15.0375C112.036 15.2895 112.192 15.4875 112.396 15.6315C112.612 15.7635 112.882 15.8295 113.206 15.8295Z" fill="#51D9E9"/>
<path d="M93.7359 17.8995L93.2499 8.89954H96.2379L96.2919 15.3975L99.4059 8.89954H102.43L102.79 15.4335L105.724 8.89954H108.964L104.302 17.8995H100.666L100.27 12.3555L97.4619 17.8995H93.7359Z" fill="#51D9E9"/>
<path d="M91.0344 7.85551C90.5064 7.85551 90.0924 7.74751 89.7924 7.53151C89.5044 7.31551 89.3904 6.96751 89.4504 6.48751C89.5104 5.93551 89.6964 5.53951 90.0084 5.29951C90.3204 5.04751 90.7584 4.92151 91.3224 4.92151C91.8624 4.92151 92.2764 5.03551 92.5644 5.26351C92.8644 5.49151 92.9844 5.82751 92.9244 6.27151C92.8644 6.85951 92.6724 7.27351 92.3484 7.51351C92.0364 7.74151 91.5984 7.85551 91.0344 7.85551ZM92.1504 8.89951L90.0624 17.8995H87.0024L89.0904 8.89951H92.1504Z" fill="#51D9E9"/>
<path d="M79.5474 18.0615C78.9474 18.0615 78.4074 17.9235 77.9274 17.6475C77.4594 17.3595 77.0874 16.9515 76.8114 16.4235C76.5474 15.8835 76.4154 15.2235 76.4154 14.4435C76.4154 13.7235 76.5174 13.0215 76.7214 12.3375C76.9254 11.6535 77.2194 11.0415 77.6034 10.5015C77.9994 9.94948 78.4674 9.51748 79.0074 9.20548C79.5594 8.88148 80.1774 8.71948 80.8614 8.71948C81.2574 8.71948 81.6354 8.79148 81.9954 8.93548C82.3674 9.07948 82.6794 9.30148 82.9314 9.60148C83.1954 9.90148 83.3754 10.2975 83.4714 10.7895L83.9034 8.89948H86.9634L84.8754 17.8995H82.1034L82.4094 16.2075C82.1214 16.7835 81.7254 17.2395 81.2214 17.5755C80.7174 17.8995 80.1594 18.0615 79.5474 18.0615ZM80.8794 15.8295C81.1794 15.8295 81.4554 15.7335 81.7074 15.5415C81.9594 15.3495 82.1754 15.0975 82.3554 14.7855C82.5474 14.4615 82.6914 14.1135 82.7874 13.7415C82.8954 13.3575 82.9494 12.9795 82.9494 12.6075C82.9494 12.2715 82.8894 11.9835 82.7694 11.7435C82.6614 11.4915 82.5054 11.2995 82.3014 11.1675C82.0974 11.0355 81.8514 10.9695 81.5634 10.9695C81.2274 10.9695 80.9274 11.0715 80.6634 11.2755C80.3994 11.4675 80.1774 11.7195 79.9974 12.0315C79.8174 12.3435 79.6794 12.6855 79.5834 13.0575C79.4874 13.4175 79.4394 13.7655 79.4394 14.1015C79.4394 14.4615 79.4934 14.7735 79.6014 15.0375C79.7094 15.2895 79.8654 15.4875 80.0694 15.6315C80.2854 15.7635 80.5554 15.8295 80.8794 15.8295Z" fill="#51D9E9"/>
<path d="M78.358 6.01953L77.8 8.41353H73.966L71.77 17.8995H68.674L70.87 8.41353H67L67.558 6.01953H78.358Z" fill="#51D9E9"/>
<defs>
<clipPath id="clip0_6129_148862">
<rect width="59" height="23" fill="white" transform="translate(0 -0.00854492)"/>
</clipPath>
</defs>
</svg>
